<svg width="24" height="24" viewBox="0 0 24 24" fill="none" xmlns="http://www.w3.org/2000/svg">
<path d="M0 1.5C0 0.671573 0.671573 0 1.5 0H9.375C10.2034 0 10.875 0.671573 10.875 1.5V6.375C10.875 7.20343 10.2034 7.875 9.375 7.875H1.5C0.671573 7.875 0 7.20343 0 6.375V1.5Z" fill="#E34543"/>
<path d="M13.125 1.5C13.125 0.671573 13.7966 0 14.625 0H22.5C23.3284 0 24 0.671573 24 1.5V12.375C24 13.2034 23.3284 13.875 22.5 13.875H14.625C13.7966 13.875 13.125 13.2034 13.125 12.375V1.5Z" fill="#E34543"/>
<path d="M24 22.5C24 23.3284 23.3284 24 22.5 24H14.625C13.7966 24 13.125 23.3284 13.125 22.5V17.625C13.125 16.7966 13.7966 16.125 14.625 16.125H22.5C23.3284 16.125 24 16.7966 24 17.625V22.5Z" fill="#E34543"/>
<path d="M10.875 22.5C10.875 23.3284 10.2034 24 9.375 24H1.5C0.671573 24 0 23.3284 0 22.5V11.625C0 10.7966 0.671573 10.125 1.5 10.125H9.375C10.2034 10.125 10.875 10.7966 10.875 11.625V22.5Z" fill="#E34543"/>
</svg>
