<svg width="28" height="30" viewBox="0 0 28 30" fill="none" xmlns="http://www.w3.org/2000/svg">
<path d="M6.86089 25.8755C-1.58942 15.8256 11.4503 3.4266 20.9933 12.2414C25.4371 16.3461 24.6358 22.7833 20.9933 22.7833C18.4437 22.7833 17.8493 19.77 17.5695 18.2854C16.841 14.4201 11.4198 14.4903 10.7219 18.2854C9.79787 23.3096 14.6556 26.6486 16.9139 27M4.38411 6.9705C12.1788 -0.057402 20.4834 3.80794 23.4702 6.68938M3 12.1711C8.24503 4.29989 19.9007 4.08906 25 12.1711M14.0728 17.8637C13.7086 20.6749 15.8212 25.3133 20.3377 25.3133M11.5232 26.9297C8.9735 24.1888 6.64634 21.1145 7.4437 17.6529C8.24107 14.1913 11.0132 12.382 14.1457 12.382C17.7152 12.382 20.6292 15.1229 20.9934 19.6207" stroke="white" stroke-width="1.48148" stroke-linecap="round"/>
</svg>
