<svg width="24" height="24" viewBox="0 0 24 24" fill="none" xmlns="http://www.w3.org/2000/svg">
<rect width="24" height="24" rx="2.625" fill="#5A5A5A"/>
<path d="M4.6875 6.375C4.6875 5.85723 5.10723 5.4375 5.625 5.4375H7.875C8.39277 5.4375 8.8125 5.85723 8.8125 6.375C8.8125 6.89277 8.39277 7.3125 7.875 7.3125H5.625C5.10723 7.3125 4.6875 6.89277 4.6875 6.375Z" fill="white"/>
<path d="M4.6875 12C4.6875 11.4822 5.10723 11.0625 5.625 11.0625H7.875C8.39277 11.0625 8.8125 11.4822 8.8125 12C8.8125 12.5178 8.39277 12.9375 7.875 12.9375H5.625C5.10723 12.9375 4.6875 12.5178 4.6875 12Z" fill="white"/>
<path d="M4.6875 17.625C4.6875 17.1072 5.10723 16.6875 5.625 16.6875H7.875C8.39277 16.6875 8.8125 17.1072 8.8125 17.625C8.8125 18.1428 8.39277 18.5625 7.875 18.5625H5.625C5.10723 18.5625 4.6875 18.1428 4.6875 17.625Z" fill="white"/>
<path d="M10.3125 6.375C10.3125 5.85723 10.7322 5.4375 11.25 5.4375H18.375C18.8928 5.4375 19.3125 5.85723 19.3125 6.375C19.3125 6.89277 18.8928 7.3125 18.375 7.3125H11.25C10.7322 7.3125 10.3125 6.89277 10.3125 6.375Z" fill="white"/>
<path d="M10.3125 12C10.3125 11.4822 10.7322 11.0625 11.25 11.0625H18.375C18.8928 11.0625 19.3125 11.4822 19.3125 12C19.3125 12.5178 18.8928 12.9375 18.375 12.9375H11.25C10.7322 12.9375 10.3125 12.5178 10.3125 12Z" fill="white"/>
<path d="M10.3125 17.625C10.3125 17.1072 10.7322 16.6875 11.25 16.6875H18.375C18.8928 16.6875 19.3125 17.1072 19.3125 17.625C19.3125 18.1428 18.8928 18.5625 18.375 18.5625H11.25C10.7322 18.5625 10.3125 18.1428 10.3125 17.625Z" fill="white"/>
</svg>
