<svg width="21" height="24" viewBox="0 0 21 24" fill="none" xmlns="http://www.w3.org/2000/svg">
<path fill-rule="evenodd" clip-rule="evenodd" d="M0.591937 0C0.276346 0 0.0205086 0.255837 0.0205086 0.571428C0.0205086 0.573909 0.0205244 0.576385 0.020556 0.578858L0 0.571428V20.5714L9.48616 24V20.5714H13.6354C13.951 20.5714 14.2068 20.3156 14.2068 20V13.1429C14.2068 12.8273 13.951 12.5714 13.6354 12.5714C13.3198 12.5714 13.064 12.8273 13.064 13.1429V19.4286H9.48616V4L1.58103 1.14286H13.064V7.42857C13.064 7.74416 13.3198 8 13.6354 8C13.951 8 14.2068 7.74416 14.2068 7.42857V0.571428C14.2068 0.255837 13.951 0 13.6354 0H0.591937ZM17.3729 6.45142C17.1488 6.22918 16.787 6.23068 16.5647 6.45475C16.3425 6.67883 16.344 7.04063 16.5681 7.26287L19.0398 9.71428H12.8203C12.5047 9.71428 12.2488 9.97012 12.2488 10.2857C12.2488 10.6013 12.5047 10.8571 12.8203 10.8571H19.0398L16.5681 13.3086C16.344 13.5308 16.3425 13.8926 16.5647 14.1167C16.787 14.3407 17.1488 14.3422 17.3729 14.12L20.8298 10.6914C20.938 10.5841 20.9989 10.4381 20.9989 10.2857C20.9989 10.1333 20.938 9.98728 20.8298 9.87999L17.3729 6.45142Z" fill="#5A5A5A"/>
</svg>
