<svg width="24" height="24" viewBox="0 0 24 24" fill="none" xmlns="http://www.w3.org/2000/svg">
<path d="M12 24C18.6274 24 24 18.6274 24 12C24 5.37258 18.6274 0 12 0C5.37258 0 0 5.37258 0 12C0 14.8172 0.970832 17.4077 2.59619 19.4552C2.71354 19.603 2.74348 19.8031 2.66876 19.9764L1.29708 23.1581C1.146 23.5086 1.42738 23.8923 1.80703 23.8535L7.67694 23.2539C7.75354 23.2461 7.83086 23.2562 7.90323 23.2825C9.1816 23.7468 10.5612 24 12 24Z" fill="white"/>
<path d="M7.44031 10.44C7.44031 10.0424 7.76267 9.72003 8.16031 9.72003H11.7603C12.158 9.72003 12.4803 10.0424 12.4803 10.44C12.4803 10.8377 12.158 11.16 11.7603 11.16H8.16031C7.76267 11.16 7.44031 10.8377 7.44031 10.44Z" fill="#E34543"/>
<path d="M7.32031 13.56C7.32031 13.1624 7.64267 12.84 8.04031 12.84H15.9603C16.358 12.84 16.6803 13.1624 16.6803 13.56C16.6803 13.9577 16.358 14.28 15.9603 14.28H8.04031C7.64267 14.28 7.32031 13.9577 7.32031 13.56Z" fill="#E34543"/>
</svg>
