<svg width="21" height="16" viewBox="0 0 21 16" fill="none" xmlns="http://www.w3.org/2000/svg">
<rect width="21" height="16" rx="2" fill="#5A5A5A"/>
<path fill-rule="evenodd" clip-rule="evenodd" d="M6.50016 8C7.85577 8 8.9547 6.88071 8.9547 5.5C8.9547 4.11929 7.85577 3 6.50016 3C5.14455 3 4.04561 4.11929 4.04561 5.5C4.04561 6.88071 5.14455 8 6.50016 8ZM6.36025 8.41667C3.95215 8.41667 2 10.3688 2 12.7769C2 12.9001 2.09988 13 2.22308 13H10.7769C10.9001 13 11 12.9001 11 12.7769C11 10.3688 9.04785 8.41667 6.63975 8.41667H6.36025Z" fill="white"/>
<path d="M13 4C13 3.44772 13.4477 3 14 3H18C18.5523 3 19 3.44772 19 4V4C19 4.55228 18.5523 5 18 5H14C13.4477 5 13 4.55228 13 4V4Z" fill="white"/>
<path d="M13 8C13 7.44772 13.4477 7 14 7H18C18.5523 7 19 7.44772 19 8V8C19 8.55228 18.5523 9 18 9H14C13.4477 9 13 8.55228 13 8V8Z" fill="white"/>
<path d="M13 12C13 11.4477 13.4477 11 14 11H18C18.5523 11 19 11.4477 19 12V12C19 12.5523 18.5523 13 18 13H14C13.4477 13 13 12.5523 13 12V12Z" fill="white"/>
</svg>
