<svg width="24" height="24" viewBox="0 0 24 24" fill="none" xmlns="http://www.w3.org/2000/svg">
<path d="M5.25806 19.0328V22.6364C5.25806 22.8372 5.42087 23 5.6217 23H18.3783C18.5791 23 18.7419 22.8372 18.7419 22.6364V19.0328M5.25806 19.0328V15.0686C5.25806 14.8677 5.42087 14.7049 5.6217 14.7049H18.3783C18.5791 14.7049 18.7419 14.8677 18.7419 15.0686V19.0328M5.25806 19.0328H2.77419C1.79433 19.0328 1 18.2254 1 17.2295V10.7377C1 9.74178 1.79433 8.93443 2.77419 8.93443H21.2258C22.2057 8.93443 23 9.74178 23 10.7377V17.2295C23 18.2254 22.2057 19.0328 21.2258 19.0328H18.7419M5.6129 8.93443H18.3871C18.5831 8.93443 18.7419 8.77295 18.7419 8.57377V1.36066C18.7419 1.16147 18.5831 1 18.3871 1H5.6129C5.41693 1 5.25806 1.16147 5.25806 1.36066V8.57377C5.25806 8.77295 5.41693 8.93443 5.6129 8.93443Z" stroke="black"/>
</svg>
