<svg width="24" height="24" viewBox="0 0 24 24" fill="none" xmlns="http://www.w3.org/2000/svg">
<path fill-rule="evenodd" clip-rule="evenodd" d="M18.1355 1.97828C18.8037 1.31005 18.5692 0.18623 17.6322 0.0629982C17.3163 0.0214421 16.994 0 16.6667 0C12.6166 0 9.33333 3.28325 9.33333 7.33333C9.33333 8.38129 9.55315 9.3779 9.94919 10.2796L0.781049 19.4477C-0.26035 20.4891 -0.26035 22.1776 0.781049 23.219C1.82245 24.2603 3.51089 24.2603 4.55228 23.219L13.7204 14.0508C14.6221 14.4469 15.6187 14.6667 16.6667 14.6667C20.7168 14.6667 24 11.3834 24 7.33333C24 7.07011 23.9861 6.81012 23.9591 6.55407C23.8586 5.60299 22.7229 5.3523 22.0466 6.02856L19.9566 8.11862C19.4359 8.63932 18.5916 8.63932 18.0709 8.11862L15.9758 6.02354C15.4551 5.50284 15.4551 4.65862 15.9758 4.13792L18.1355 1.97828Z" fill="#5A5A5A"/>
</svg>
