<svg width="24" height="24" viewBox="0 0 24 24" fill="none" xmlns="http://www.w3.org/2000/svg">
<path d="M6.09505 10.2857C5.67426 10.2857 5.33315 10.6268 5.33315 11.0476C5.33315 11.4684 5.67426 11.8095 6.09505 11.8095V10.2857ZM15.2379 11.8095C15.6587 11.8095 15.9998 11.4684 15.9998 11.0476C15.9998 10.6268 15.6587 10.2857 15.2379 10.2857V11.8095ZM17.6814 16.6041C17.3839 16.3066 16.9015 16.3066 16.6039 16.6041C16.3064 16.9016 16.3064 17.3841 16.6039 17.6816L17.6814 16.6041ZM22.6992 23.7768C22.9967 24.0744 23.4791 24.0744 23.7767 23.7768C24.0742 23.4793 24.0742 22.9969 23.7767 22.6993L22.6992 23.7768ZM19.0474 10.2857C19.0474 15.1248 15.1246 19.0476 10.2855 19.0476V20.5714C15.9662 20.5714 20.5712 15.9664 20.5712 10.2857H19.0474ZM10.2855 19.0476C5.44646 19.0476 1.52362 15.1248 1.52362 10.2857H-0.000186026C-0.000186026 15.9664 4.60489 20.5714 10.2855 20.5714V19.0476ZM1.52362 10.2857C1.52362 5.44664 5.44646 1.52381 10.2855 1.52381V-2.92063e-06C4.60489 -2.92063e-06 -0.000186026 4.60507 -0.000186026 10.2857H1.52362ZM10.2855 1.52381C15.1246 1.52381 19.0474 5.44664 19.0474 10.2857H20.5712C20.5712 4.60507 15.9662 -2.92063e-06 10.2855 -2.92063e-06V1.52381ZM6.09505 11.8095H10.8493V10.2857H6.09505V11.8095ZM10.8493 11.8095H15.2379V10.2857H10.8493V11.8095ZM23.7767 22.6993L17.6814 16.6041L16.6039 17.6816L22.6992 23.7768L23.7767 22.6993Z" fill="black"/>
</svg>
